<svg width="1200" height="198" viewBox="0 0 1200 198" fill="none" xmlns="http://www.w3.org/2000/svg">
<g clip-path="url(#clip0_30_1748)">
<path d="M57.5 150.604C89.2564 150.604 115 124.86 115 93.104C115 93.104 96.4136 111.073 63.2275 87.8818C30.0415 64.6909 0 61.3476 0 93.104C0 124.86 25.7436 150.604 57.5 150.604Z" fill="#CFFAFE"/>
<path d="M101.074 69.3603C101.074 74.3354 97.0518 78.3684 92.0898 78.3684C87.1279 78.3684 83.1055 74.3354 83.1055 69.3603C83.1055 64.3852 83.1055 64.3558 92.0898 47.396C101.074 64.4114 101.074 64.3852 101.074 69.3603Z" fill="#CFFAFE"/>
<path d="M156.944 159V41.4H179.456L248.84 126.072H237.92V41.4H264.8V159H242.456L172.904 74.328H183.824V159H156.944ZM314.296 161.016C306.344 161.016 299.008 159.56 292.288 156.648C285.68 153.624 280.248 149.368 275.992 143.88L291.112 125.736C294.36 129.992 297.776 133.24 301.36 135.48C304.944 137.608 308.808 138.672 312.952 138.672C324.04 138.672 329.584 132.176 329.584 119.184V63.24H288.256V41.4H356.632V117.672C356.632 132.232 353.048 143.096 345.88 150.264C338.712 157.432 328.184 161.016 314.296 161.016ZM408.714 94.32H465.162V116.16H408.714V94.32ZM410.73 159H383.514V41.4H472.386V63.24H410.73V159ZM490.811 159V41.4H541.715C552.243 41.4 561.315 43.136 568.931 46.608C576.547 49.968 582.427 54.84 586.571 61.224C590.715 67.608 592.787 75.224 592.787 84.072C592.787 92.808 590.715 100.368 586.571 106.752C582.427 113.136 576.547 118.064 568.931 121.536C561.315 124.896 552.243 126.576 541.715 126.576H505.931L518.027 114.312V159H490.811ZM518.027 117.336L505.931 104.4H540.203C548.603 104.4 554.875 102.608 559.019 99.024C563.163 95.44 565.235 90.456 565.235 84.072C565.235 77.576 563.163 72.536 559.019 68.952C554.875 65.368 548.603 63.576 540.203 63.576H505.931L518.027 50.64V117.336ZM610.205 159V68.616H635.237V94.152L631.709 86.76C634.397 80.376 638.709 75.56 644.645 72.312C650.581 68.952 657.805 67.272 666.317 67.272V91.464C665.197 91.352 664.189 91.296 663.293 91.296C662.397 91.184 661.445 91.128 660.437 91.128C653.269 91.128 647.445 93.2 642.965 97.344C638.597 101.376 636.413 107.704 636.413 116.328V159H610.205ZM724.252 160.344C714.62 160.344 706.052 158.328 698.548 154.296C691.156 150.264 685.276 144.776 680.908 137.832C676.652 130.776 674.524 122.768 674.524 113.808C674.524 104.736 676.652 96.728 680.908 89.784C685.276 82.728 691.156 77.24 698.548 73.32C706.052 69.288 714.62 67.272 724.252 67.272C733.772 67.272 742.284 69.288 749.788 73.32C757.292 77.24 763.172 82.672 767.428 89.616C771.684 96.56 773.812 104.624 773.812 113.808C773.812 122.768 771.684 130.776 767.428 137.832C763.172 144.776 757.292 150.264 749.788 154.296C742.284 158.328 733.772 160.344 724.252 160.344ZM724.252 138.84C728.62 138.84 732.54 137.832 736.012 135.816C739.484 133.8 742.228 130.944 744.244 127.248C746.26 123.44 747.268 118.96 747.268 113.808C747.268 108.544 746.26 104.064 744.244 100.368C742.228 96.672 739.484 93.816 736.012 91.8C732.54 89.784 728.62 88.776 724.252 88.776C719.884 88.776 715.964 89.784 712.492 91.8C709.02 93.816 706.22 96.672 704.092 100.368C702.076 104.064 701.068 108.544 701.068 113.808C701.068 118.96 702.076 123.44 704.092 127.248C706.22 130.944 709.02 133.8 712.492 135.816C715.964 137.832 719.884 138.84 724.252 138.84ZM784.61 192.936C780.578 192.936 776.714 192.488 773.018 191.592C769.322 190.808 766.186 189.576 763.61 187.896L770.666 168.912C773.69 171.04 777.386 172.104 781.754 172.104C785.002 172.104 787.578 170.984 789.482 168.744C791.498 166.616 792.506 163.368 792.506 159V68.616H818.714V158.832C818.714 169.248 815.746 177.536 809.81 183.696C803.874 189.856 795.474 192.936 784.61 192.936ZM805.61 56.016C800.794 56.016 796.874 54.616 793.85 51.816C790.826 49.016 789.314 45.544 789.314 41.4C789.314 37.256 790.826 33.784 793.85 30.984C796.874 28.184 800.794 26.784 805.61 26.784C810.426 26.784 814.346 28.128 817.37 30.816C820.394 33.392 821.906 36.752 821.906 40.896C821.906 45.264 820.394 48.904 817.37 51.816C814.458 54.616 810.538 56.016 805.61 56.016ZM887.702 160.344C877.398 160.344 868.326 158.328 860.486 154.296C852.758 150.264 846.766 144.776 842.51 137.832C838.254 130.776 836.126 122.768 836.126 113.808C836.126 104.736 838.198 96.728 842.342 89.784C846.598 82.728 852.366 77.24 859.646 73.32C866.926 69.288 875.158 67.272 884.342 67.272C893.19 67.272 901.142 69.176 908.198 72.984C915.366 76.68 921.022 82.056 925.166 89.112C929.31 96.056 931.382 104.4 931.382 114.144C931.382 115.152 931.326 116.328 931.214 117.672C931.102 118.904 930.99 120.08 930.878 121.2H857.462V105.912H917.102L907.022 110.448C907.022 105.744 906.07 101.656 904.166 98.184C902.262 94.712 899.63 92.024 896.27 90.12C892.91 88.104 888.99 87.096 884.51 87.096C880.03 87.096 876.054 88.104 872.582 90.12C869.222 92.024 866.59 94.768 864.686 98.352C862.782 101.824 861.83 105.968 861.83 110.784V114.816C861.83 119.744 862.894 124.112 865.022 127.92C867.262 131.616 870.342 134.472 874.262 136.488C878.294 138.392 882.998 139.344 888.374 139.344C893.19 139.344 897.39 138.616 900.974 137.16C904.67 135.704 908.03 133.52 911.054 130.608L924.998 145.728C920.854 150.432 915.646 154.072 909.374 156.648C903.102 159.112 895.878 160.344 887.702 160.344ZM992.51 160.344C982.766 160.344 974.086 158.384 966.47 154.464C958.854 150.432 952.862 144.888 948.494 137.832C944.238 130.776 942.11 122.768 942.11 113.808C942.11 104.736 944.238 96.728 948.494 89.784C952.862 82.728 958.854 77.24 966.47 73.32C974.086 69.288 982.766 67.272 992.51 67.272C1002.03 67.272 1010.32 69.288 1017.37 73.32C1024.43 77.24 1029.64 82.896 1033 90.288L1012.67 101.208C1010.32 96.952 1007.35 93.816 1003.77 91.8C1000.29 89.784 996.486 88.776 992.342 88.776C987.862 88.776 983.83 89.784 980.246 91.8C976.662 93.816 973.806 96.672 971.678 100.368C969.662 104.064 968.654 108.544 968.654 113.808C968.654 119.072 969.662 123.552 971.678 127.248C973.806 130.944 976.662 133.8 980.246 135.816C983.83 137.832 987.862 138.84 992.342 138.84C996.486 138.84 1000.29 137.888 1003.77 135.984C1007.35 133.968 1010.32 130.776 1012.67 126.408L1033 137.496C1029.64 144.776 1024.43 150.432 1017.37 154.464C1010.32 158.384 1002.03 160.344 992.51 160.344ZM1086.36 160.344C1075.72 160.344 1067.43 157.656 1061.5 152.28C1055.56 146.792 1052.59 138.672 1052.59 127.92V48.624H1078.8V127.584C1078.8 131.392 1079.81 134.36 1081.82 136.488C1083.84 138.504 1086.58 139.512 1090.06 139.512C1094.2 139.512 1097.73 138.392 1100.64 136.152L1107.7 154.632C1105.01 156.536 1101.76 157.992 1097.95 159C1094.26 159.896 1090.39 160.344 1086.36 160.344ZM1038.65 90.792V70.632H1101.31V90.792H1038.65ZM1152.82 160.344C1145.09 160.344 1137.64 159.448 1130.47 157.656C1123.42 155.752 1117.82 153.4 1113.67 150.6L1122.41 131.784C1126.55 134.36 1131.42 136.488 1137.02 138.168C1142.74 139.736 1148.34 140.52 1153.82 140.52C1159.87 140.52 1164.13 139.792 1166.59 138.336C1169.17 136.88 1170.46 134.864 1170.46 132.288C1170.46 130.16 1169.45 128.592 1167.43 127.584C1165.53 126.464 1162.95 125.624 1159.7 125.064C1156.46 124.504 1152.87 123.944 1148.95 123.384C1145.14 122.824 1141.28 122.096 1137.36 121.2C1133.44 120.192 1129.86 118.736 1126.61 116.832C1123.36 114.928 1120.73 112.352 1118.71 109.104C1116.81 105.856 1115.86 101.656 1115.86 96.504C1115.86 90.792 1117.48 85.752 1120.73 81.384C1124.09 77.016 1128.9 73.6 1135.18 71.136C1141.45 68.56 1148.95 67.272 1157.69 67.272C1163.85 67.272 1170.12 67.944 1176.5 69.288C1182.89 70.632 1188.21 72.592 1192.46 75.168L1183.73 93.816C1179.36 91.24 1174.94 89.504 1170.46 88.608C1166.09 87.6 1161.83 87.096 1157.69 87.096C1151.86 87.096 1147.61 87.88 1144.92 89.448C1142.23 91.016 1140.89 93.032 1140.89 95.496C1140.89 97.736 1141.84 99.416 1143.74 100.536C1145.76 101.656 1148.39 102.552 1151.64 103.224C1154.89 103.896 1158.42 104.512 1162.22 105.072C1166.14 105.52 1170.06 106.248 1173.98 107.256C1177.9 108.264 1181.43 109.72 1184.57 111.624C1187.82 113.416 1190.45 115.936 1192.46 119.184C1194.48 122.32 1195.49 126.464 1195.49 131.616C1195.49 137.216 1193.81 142.2 1190.45 146.568C1187.09 150.824 1182.22 154.184 1175.83 156.648C1169.56 159.112 1161.89 160.344 1152.82 160.344Z" fill="#CFFAFE"/>
</g>
<defs>
<clipPath id="clip0_30_1748">
<rect width="1200" height="198" fill="white"/>
</clipPath>
</defs>
</svg>
