<svg width="1024" height="1024" viewBox="0 0 1024 1024" fill="none" xmlns="http://www.w3.org/2000/svg">
<path d="M512 1024C794.77 1024 1024 794.77 1024 512C1024 512 858.5 672 563 465.5C267.5 259 0 229.23 0 512C0 794.77 229.23 1024 512 1024Z" fill="#164E63"/>
<path d="M297.987 773V655.4H320.499L389.883 740.072H378.963V655.4H405.843V773H383.499L313.947 688.328H324.867V773H297.987ZM455.339 775.016C447.387 775.016 440.051 773.56 433.331 770.648C426.723 767.624 421.291 763.368 417.035 757.88L432.155 739.736C435.403 743.992 438.819 747.24 442.403 749.48C445.987 751.608 449.851 752.672 453.995 752.672C465.083 752.672 470.627 746.176 470.627 733.184V677.24H429.299V655.4H497.675V731.672C497.675 746.232 494.091 757.096 486.923 764.264C479.755 771.432 469.227 775.016 455.339 775.016ZM549.757 708.32H606.205V730.16H549.757V708.32ZM551.773 773H524.557V655.4H613.429V677.24H551.773V773ZM631.854 773V655.4H682.758C693.286 655.4 702.358 657.136 709.974 660.608C717.59 663.968 723.47 668.84 727.614 675.224C731.758 681.608 733.83 689.224 733.83 698.072C733.83 706.808 731.758 714.368 727.614 720.752C723.47 727.136 717.59 732.064 709.974 735.536C702.358 738.896 693.286 740.576 682.758 740.576H646.974L659.07 728.312V773H631.854ZM659.07 731.336L646.974 718.4H681.246C689.646 718.4 695.918 716.608 700.062 713.024C704.206 709.44 706.278 704.456 706.278 698.072C706.278 691.576 704.206 686.536 700.062 682.952C695.918 679.368 689.646 677.576 681.246 677.576H646.974L659.07 664.64V731.336Z" fill="#CFFAFE"/>
<path d="M900 300.578C900 344.877 864.183 380.789 820 380.789C775.817 380.789 740 344.877 740 300.578C740 256.278 740 256.016 820 105C900 256.511 900 256.278 900 300.578Z" fill="#164E63"/>
</svg>
